<svg width="21" height="13" viewBox="0 0 21 13" fill="none" xmlns="http://www.w3.org/2000/svg">
<path d="M10.5131 1.75C14.6702 1.75 17.5682 4.3855 18.8291 5.8065C17.6032 7.41388 14.7052 10.5 10.5131 10.5C6.64563 10.5 3.57437 7.406 2.21987 5.76888C3.52625 4.32775 6.43475 1.75 10.5131 1.75ZM10.5131 0C3.89025 0 0 5.73213 0 5.73213C0 5.73213 4.23063 12.25 10.5131 12.25C17.2795 12.25 21 5.73213 21 5.73213C21 5.73213 17.2454 0 10.5131 0ZM10.5 2.625C8.56625 2.625 7 4.19213 7 6.125C7 8.05788 8.56625 9.625 10.5 9.625C12.4329 9.625 14 8.05788 14 6.125C14 4.19213 12.4329 2.625 10.5 2.625ZM10.4965 6.12413C10.003 6.61763 9.20237 6.61763 8.708 6.12413C8.21362 5.63063 8.21362 4.82913 8.708 4.33563C9.2015 3.84213 10.0021 3.84213 10.4965 4.33563C10.9909 4.82913 10.9909 5.62975 10.4965 6.12413Z" fill="#666666"/>
</svg>
