<svg width="21" height="17" viewBox="0 0 21 17" fill="none" xmlns="http://www.w3.org/2000/svg">
<path d="M17.1535 0L14.2257 2.74487C13.1145 2.37037 11.8755 2.13325 10.5131 2.13325C3.89025 2.13325 0 7.86537 0 7.86537C0 7.86537 1.687 10.4475 4.50275 12.3611L1.95562 14.9065L3.19287 16.1437L18.3916 1.23812L17.1535 0ZM11.8895 5.05662C9.0125 3.78525 6.04362 6.72612 7.28263 9.61187L5.77238 11.1055C4.18512 10.0905 2.9505 8.78675 2.21987 7.903C3.52625 6.461 6.43475 3.88325 10.5131 3.88325C11.3243 3.88325 12.0846 3.98738 12.7969 4.15888L11.8895 5.05662ZM9.36687 11.5588L13.8206 7.18988C14.7105 9.912 12.068 12.4985 9.36687 11.5588ZM21 7.86537C21 7.86537 17.2795 14.3832 10.5131 14.3832C9.3065 14.3832 8.18388 14.1286 7.1435 13.7384L8.55575 12.3533C9.18137 12.5221 9.8315 12.6332 10.5131 12.6332C14.7052 12.6332 17.6041 9.54712 18.8291 7.93975C18.1912 7.2205 17.1176 6.1985 15.6905 5.35675L16.9934 4.07925C19.6026 5.74175 21 7.86537 21 7.86537Z" fill="#666666"/>
</svg>
